<svg width="47" height="48" viewBox="0 0 47 48" fill="none" xmlns="http://www.w3.org/2000/svg">
<g clip-path="url(#clip0_304_3765)">
<path d="M21.0933 37.0314V37.0414H21.2916V37.0314H21.0933ZM21.0933 37.0314V37.0414H21.2916V37.0314H21.0933ZM44.9445 1.71575H44.9544V1.5769C44.9544 1.62649 44.9445 1.66616 44.9445 1.71575ZM44.9445 1.71575H44.9544V1.5769C44.9544 1.62649 44.9445 1.66616 44.9445 1.71575ZM21.966 33.3819C21.966 33.3918 21.966 33.3918 21.9759 33.4017L21.966 33.3819ZM21.0933 37.0314V37.0414H21.2916V37.0314H21.0933ZM44.9445 1.71575H44.9544V1.5769C44.9544 1.62649 44.9445 1.66616 44.9445 1.71575Z" fill="#529B3C"/>
<path d="M46.4716 0.852893C46.4716 0.624793 46.3824 0.406612 46.2237 0.247934C46.065 0.0892562 45.8468 0 45.6187 0C35.0667 0 26.2799 7.74545 24.6435 17.8512C23.5229 15.3917 21.7378 13.2694 19.4865 11.7521C17.0468 10.0959 14.1708 9.21322 11.2154 9.21322C10.9973 9.21322 10.7791 9.30248 10.6204 9.46116C10.4518 9.61983 10.3625 9.83802 10.3625 10.0661C10.3725 13.8843 11.8501 17.5537 14.4981 20.3107C17.1063 23.0083 20.627 24.6347 24.3758 24.8331V31.6661C23.4237 31.6959 22.4816 31.7752 21.5394 31.924C20.2402 29.4347 18.0386 27.5504 15.3906 26.638C12.703 25.7157 9.74767 25.8744 7.16916 27.0843C4.59065 28.2942 2.58734 30.4661 1.57577 33.1339C0.564199 35.8017 0.633621 38.757 1.7642 41.3752C2.88486 43.9934 4.99726 46.0661 7.62536 47.157C10.2535 48.2579 13.2088 48.2777 15.8568 47.2364C18.5146 46.1851 20.6468 44.1422 21.827 41.5537C22.9675 39.0347 23.1063 36.1686 22.2336 33.5504C23.2254 33.4215 24.2171 33.3521 25.2187 33.3521H25.2287C25.2386 33.3521 25.2386 33.3521 25.2386 33.3521C25.2485 33.3521 25.2485 33.3521 25.2485 33.3521C25.2584 33.3521 25.2584 33.3521 25.2584 33.3521C29.6816 33.3521 34.0353 34.6215 37.7543 37.0215C37.8535 37.081 37.9526 37.1207 38.0617 37.1405C38.1807 37.1603 38.2898 37.1603 38.3989 37.1405C38.508 37.1107 38.6171 37.0711 38.7063 37.0017C38.7956 36.9422 38.8749 36.8628 38.9444 36.7636C39.0039 36.6744 39.0435 36.5653 39.0634 36.4562C39.0832 36.3471 39.0832 36.2281 39.0535 36.119C39.0336 36.0099 38.984 35.9008 38.9245 35.8116C38.8551 35.7223 38.7758 35.643 38.6766 35.5835C34.908 33.1636 30.5543 31.805 26.0816 31.6661V22.086C37.4072 21.6397 46.4716 12.2876 46.4716 0.852893ZM44.9543 1.57686V1.7157H44.9444C44.9444 1.66612 44.9543 1.62645 44.9543 1.57686ZM44.746 1.72562C44.3196 11.3653 36.8816 19.2298 27.4105 20.281L36.0287 11.6628L36.0187 11.6529C36.108 11.5736 36.1675 11.4843 36.2171 11.3851C36.2568 11.276 36.2766 11.1669 36.2766 11.0579C36.2865 10.9388 36.2568 10.8298 36.2171 10.7207C36.1774 10.6215 36.108 10.5223 36.0287 10.443C35.9493 10.3636 35.8601 10.3041 35.751 10.2545C35.6518 10.2149 35.5328 10.195 35.4237 10.195C35.3047 10.195 35.1956 10.2149 35.0964 10.2645C34.9873 10.3041 34.8981 10.3736 34.8187 10.4529L26.2105 19.0612C27.2716 9.59008 35.1163 2.14215 44.746 1.72562ZM15.9063 19.3091C13.665 17.0678 12.3262 14.1025 12.0981 10.9587C15.2518 11.1669 18.2171 12.5157 20.4584 14.757C22.6997 16.9983 24.0485 19.9636 24.2568 23.1174C21.113 22.8893 18.1477 21.5504 15.9063 19.3091ZM21.2915 37.0413H21.0931C21.0931 39.5306 20.1014 41.9008 18.3559 43.6562C16.6006 45.4116 14.2204 46.4033 11.7411 46.4033C9.88651 46.4033 8.07164 45.8479 6.53445 44.8264C4.99726 43.795 3.79726 42.3273 3.09312 40.6215C2.37908 38.9058 2.20056 37.0215 2.55759 35.2066C2.91461 33.3917 3.80717 31.7256 5.11627 30.4165C6.42536 29.1074 8.09147 28.2149 9.90635 27.8479C11.7311 27.4909 13.6055 27.6793 15.3212 28.3835C17.027 29.0975 18.4948 30.2975 19.5163 31.8347C20.5477 33.3719 21.0931 35.1769 21.0931 37.0314H21.2915V37.0413ZM21.9758 33.4017C21.9659 33.3917 21.9659 33.3917 21.9659 33.3818H21.9758V33.4017Z" fill="#529B3C"/>
<path d="M44.9443 1.71575H44.9543V1.5769C44.9543 1.62649 44.9443 1.66616 44.9443 1.71575Z" fill="#529B3C"/>
<path d="M17.3049 37.795C17.3049 38.0231 17.2156 38.2413 17.0569 38.4C16.8983 38.5586 16.6801 38.6578 16.452 38.6578H11.7313C11.5131 38.6578 11.2949 38.5586 11.1363 38.4C10.9776 38.2413 10.8784 38.0231 10.8784 37.795V32.3801C10.8784 32.152 10.9776 31.9338 11.1363 31.7752C11.2949 31.6165 11.5131 31.5272 11.7313 31.5272C11.9594 31.5272 12.1776 31.6165 12.3363 31.7752C12.4949 31.9338 12.5842 32.152 12.5842 32.3801V36.9421H16.452C16.6801 36.9421 16.8983 37.0413 17.0569 37.1999C17.2156 37.3586 17.3049 37.5768 17.3049 37.795Z" fill="#529B3C"/>
</g>
<defs>
<clipPath id="clip0_304_3765">
<rect width="45.6099" height="48" fill="white" transform="translate(0.861816)"/>
</clipPath>
</defs>
</svg>
