<svg width="21" height="20" viewBox="0 0 21 20" fill="none" xmlns="http://www.w3.org/2000/svg">
<path d="M10.498 -0.00195312C4.97805 -0.00195312 0.498047 4.47805 0.498047 9.99805C0.498047 15.518 4.97805 19.998 10.498 19.998C16.018 19.998 20.498 15.518 20.498 9.99805C20.498 4.47805 16.018 -0.00195312 10.498 -0.00195312ZM15.138 6.79805C14.988 8.37805 14.338 12.218 14.008 13.988C13.868 14.738 13.588 14.988 13.328 15.018C12.748 15.068 12.308 14.638 11.748 14.268C10.868 13.688 10.368 13.328 9.51805 12.768C8.52805 12.118 9.16805 11.758 9.73805 11.178C9.88805 11.028 12.448 8.69805 12.498 8.48805C12.505 8.45624 12.5041 8.42322 12.4954 8.39185C12.4866 8.36048 12.4704 8.33171 12.448 8.30805C12.388 8.25805 12.308 8.27805 12.238 8.28805C12.148 8.30805 10.748 9.23805 8.01805 11.078C7.61805 11.348 7.25805 11.488 6.93805 11.478C6.57805 11.468 5.89805 11.278 5.38805 11.108C4.75805 10.908 4.26805 10.798 4.30805 10.448C4.32805 10.268 4.57805 10.088 5.04805 9.89805C7.96805 8.62805 9.90805 7.78805 10.878 7.38805C13.658 6.22805 14.228 6.02805 14.608 6.02805C14.688 6.02805 14.878 6.04805 14.998 6.14805C15.098 6.22805 15.128 6.33805 15.138 6.41805C15.128 6.47805 15.148 6.65805 15.138 6.79805Z" fill="#1F2023"/>
</svg>
