<svg width="21" height="20" viewBox="0 0 21 20" fill="none" xmlns="http://www.w3.org/2000/svg">
<path d="M17.5508 2.90811C16.634 1.98203 15.542 1.24777 14.3384 0.748157C13.1349 0.248541 11.8439 -0.00643324 10.5408 -0.00189356C5.08078 -0.00189356 0.630781 4.44811 0.630781 9.90811C0.630781 11.6581 1.09078 13.3581 1.95078 14.8581L0.550781 19.9981L5.80078 18.6181C7.25078 19.4081 8.88078 19.8281 10.5408 19.8281C16.0008 19.8281 20.4508 15.3781 20.4508 9.91811C20.4508 7.26811 19.4208 4.77811 17.5508 2.90811ZM10.5408 18.1481C9.06078 18.1481 7.61078 17.7481 6.34078 16.9981L6.04078 16.8181L2.92078 17.6381L3.75078 14.5981L3.55078 14.2881C2.72853 12.9751 2.29192 11.4573 2.29078 9.90811C2.29078 5.36811 5.99078 1.66811 10.5308 1.66811C12.7308 1.66811 14.8008 2.52811 16.3508 4.08811C17.1183 4.85207 17.7265 5.76077 18.1402 6.76153C18.5539 7.76229 18.7648 8.83521 18.7608 9.91811C18.7808 14.4581 15.0808 18.1481 10.5408 18.1481ZM15.0608 11.9881C14.8108 11.8681 13.5908 11.2681 13.3708 11.1781C13.1408 11.0981 12.9808 11.0581 12.8108 11.2981C12.6408 11.5481 12.1708 12.1081 12.0308 12.2681C11.8908 12.4381 11.7408 12.4581 11.4908 12.3281C11.2408 12.2081 10.4408 11.9381 9.50078 11.0981C8.76078 10.4381 8.27078 9.62811 8.12078 9.37811C7.98078 9.12811 8.10078 8.99811 8.23078 8.86811C8.34078 8.75811 8.48078 8.57811 8.60078 8.43811C8.72078 8.29811 8.77078 8.18811 8.85078 8.02811C8.93078 7.85811 8.89078 7.71811 8.83078 7.59811C8.77078 7.47811 8.27078 6.25811 8.07078 5.75811C7.87078 5.27811 7.66078 5.33811 7.51078 5.32811H7.03078C6.86078 5.32811 6.60078 5.38811 6.37078 5.63811C6.15078 5.88811 5.51078 6.48811 5.51078 7.70811C5.51078 8.92811 6.40078 10.1081 6.52078 10.2681C6.64078 10.4381 8.27078 12.9381 10.7508 14.0081C11.3408 14.2681 11.8008 14.4181 12.1608 14.5281C12.7508 14.7181 13.2908 14.6881 13.7208 14.6281C14.2008 14.5581 15.1908 14.0281 15.3908 13.4481C15.6008 12.8681 15.6008 12.3781 15.5308 12.2681C15.4608 12.1581 15.3108 12.1081 15.0608 11.9881Z" fill="#1F2023"/>
</svg>
