<svg width="50" height="48" viewBox="0 0 50 48" fill="none" xmlns="http://www.w3.org/2000/svg">
<path d="M47.7581 20.6261L45.5351 11.9261C45.1518 10.2761 43.542 9.30108 41.9322 9.60108C41.089 9.75108 40.3991 10.2011 39.9392 10.9511C39.4792 11.6261 39.3259 12.5261 39.5559 13.2761L41.089 19.1261C41.1657 19.3511 41.089 19.5761 41.0124 19.7261L40.0925 21.0011C39.5559 20.7761 39.0193 20.6261 38.4061 20.7011C37.5628 20.7761 36.7963 21.1511 36.2597 21.8261L32.2736 26.7011C31.737 27.3761 31.2004 28.1261 30.7405 28.9511C29.1307 31.8761 28.5175 35.3261 29.0541 38.6261L30.2806 45.9011C30.3572 46.2761 30.6638 46.5011 31.0471 46.5011C31.1238 46.5011 31.1238 46.5011 31.2004 46.5011C31.5837 46.4261 31.8903 46.0511 31.8137 45.6761L30.5872 38.4011C30.1272 35.4011 30.6638 32.3261 32.1203 29.6261C32.5036 28.9511 32.9635 28.2761 33.5001 27.6011L37.4862 22.7261C37.7162 22.4261 38.0994 22.2011 38.5594 22.1261C39.0193 22.0511 39.4026 22.2011 39.7092 22.5011C40.3225 23.0261 40.3225 24.0011 39.7859 24.6761L36.5663 28.6511C36.3364 28.9511 36.3364 29.4761 36.7196 29.7011C37.0263 29.9261 37.5629 29.9261 37.7928 29.5511L41.0124 25.5761C41.8556 24.4511 41.9322 23.0261 41.2423 21.9761L42.2389 20.4761C42.6221 19.9511 42.6988 19.2761 42.5455 18.6761L41.0124 12.8261C40.9357 12.4511 41.0124 12.0011 41.1657 11.6261C41.3956 11.2511 41.7789 11.0261 42.1622 10.9511C42.9288 10.8011 43.772 11.3261 44.0019 12.1511L46.225 20.8511C46.4549 21.7511 46.3016 22.7261 45.9183 23.5511L40.859 32.7011C39.6326 34.9511 39.096 37.5011 39.4026 40.0511L40.0158 45.6761C40.0925 46.0511 40.3991 46.3511 40.7824 46.3511H40.859C41.2423 46.2761 41.549 45.9761 41.549 45.5261L40.9357 39.9011C40.7057 37.6511 41.1657 35.4011 42.2389 33.3761L47.2981 24.2261C47.9114 23.2511 48.0647 21.9011 47.7581 20.6261Z" fill="#529B3C"/>
<path d="M17.4815 26.6997L13.4954 21.8247C12.9588 21.1497 12.1923 20.7747 11.3491 20.6997C10.7358 20.6247 10.1992 20.7747 9.66265 20.9997L8.81943 19.7247C8.66612 19.5747 8.66612 19.3497 8.74278 19.1247L10.2759 13.2747C10.5059 12.4497 10.3525 11.6247 9.89261 10.9497C9.43268 10.2747 8.74278 9.74966 7.89956 9.59966C6.28979 9.29966 4.75668 10.3497 4.29674 11.9247L2.07372 20.6247C1.7671 21.8997 1.92041 23.2497 2.53366 24.3747L7.59294 33.5247C8.66612 35.5497 9.12606 37.7997 8.89609 40.0497L8.28284 45.6747C8.20619 46.0497 8.51281 46.4247 8.97274 46.4997H9.0494C9.43268 46.4997 9.7393 46.1997 9.81596 45.8247L10.4292 40.1997C10.7358 37.6497 10.1992 35.0997 8.97274 32.8497L3.91346 23.6247C3.45353 22.7997 3.30021 21.8247 3.60684 20.9247L5.82986 12.2247C6.05982 11.3997 6.82638 10.8747 7.6696 11.0247C8.05287 11.0997 8.43615 11.3247 8.66612 11.6997C8.89609 12.0747 8.97274 12.4497 8.81943 12.8997L7.28632 18.7497C7.133 19.3497 7.20966 20.0247 7.59294 20.5497L8.58947 22.0497C7.89956 23.0997 7.89956 24.5997 8.81943 25.6497L12.039 29.6247C12.2689 29.9247 12.8055 29.9997 13.1122 29.7747C13.4188 29.5497 13.4954 29.0247 13.2655 28.7247L10.0459 24.7497C9.50934 24.0747 9.58599 23.0997 10.1226 22.5747C10.4292 22.2747 10.8125 22.1997 11.2724 22.1997C11.7324 22.1997 12.039 22.4247 12.3456 22.7997L16.3317 27.6747C16.8683 28.2747 17.3282 28.9497 17.7115 29.6997C19.168 32.3247 19.7046 35.4747 19.2446 38.4747L18.0181 45.7497C17.9415 46.1247 18.2481 46.5747 18.6314 46.5747C18.708 46.5747 18.708 46.5747 18.7847 46.5747C19.168 46.5747 19.4746 46.3497 19.5512 45.9747L20.7777 38.6997C21.3143 35.3997 20.7011 31.9497 19.0913 29.0247C18.5547 28.1247 18.0948 27.3747 17.4815 26.6997Z" fill="#529B3C"/>
<path d="M25.272 9.22569C25.2345 9.22565 25.1973 9.21893 25.162 9.20584C24.9972 9.14486 24.8272 9.09944 24.6543 9.07014C24.327 9.01059 23.992 9.01059 23.6647 9.07014C23.4897 9.10132 23.3177 9.14783 23.1505 9.20915C23.1037 9.22637 23.0538 9.23234 23.0044 9.2266C22.9551 9.22086 22.9077 9.20356 22.8659 9.17605C22.8238 9.14869 22.7885 9.11175 22.7627 9.06812C22.7369 9.02449 22.7213 8.97534 22.7171 8.92452L22.3517 4.41025C22.3305 4.15459 22.3614 3.89722 22.4425 3.65442C22.5236 3.41163 22.653 3.18871 22.8227 2.99978C22.9923 2.81085 23.1984 2.66002 23.428 2.55684C23.6575 2.45367 23.9055 2.40039 24.1562 2.40039C24.407 2.40039 24.6549 2.45367 24.8845 2.55684C25.114 2.66002 25.3202 2.81085 25.4898 2.99978C25.6594 3.18871 25.7889 3.41163 25.87 3.65442C25.951 3.89722 25.982 4.15459 25.9608 4.41025L25.5954 8.92121C25.5912 8.97203 25.5756 9.02118 25.5498 9.06481C25.524 9.10844 25.4887 9.14538 25.4466 9.17274C25.3945 9.20715 25.3339 9.22553 25.272 9.22569ZM24.1562 3.06656C23.9948 3.0654 23.8349 3.09932 23.6871 3.16607C23.5394 3.23282 23.4072 3.33088 23.2992 3.45379C23.1895 3.57337 23.1059 3.71551 23.0541 3.87073C23.0022 4.02595 22.9833 4.19069 22.9985 4.35399L23.3219 8.46118L23.5483 8.41485C23.9483 8.34204 24.3577 8.34204 24.7578 8.41485C24.8289 8.41485 24.9033 8.44132 24.9777 8.45787L25.3011 4.35399C25.3163 4.19069 25.2973 4.02595 25.2455 3.87073C25.1936 3.71551 25.11 3.57337 25.0003 3.45379C24.8938 3.33254 24.7637 3.23546 24.6183 3.16877C24.4729 3.10208 24.3155 3.06726 24.1562 3.06656Z" fill="#529B3C"/>
<path d="M21.6736 10.2146C21.6237 10.2124 21.575 10.1984 21.5312 10.1737C21.4874 10.1491 21.4498 10.1143 21.4214 10.0723L18.886 6.35229C18.7464 6.14184 18.6505 5.90432 18.6041 5.65443C18.5578 5.40453 18.562 5.14757 18.6166 4.89942C18.6712 4.65127 18.7749 4.41721 18.9213 4.2117C19.0678 4.0062 19.2539 3.83362 19.4681 3.70463C19.6857 3.57421 19.9272 3.49104 20.1775 3.46029C20.4279 3.42954 20.6818 3.45188 20.9234 3.52591C21.1636 3.60421 21.3851 3.73296 21.5739 3.90393C21.7627 4.0749 21.9145 4.28432 22.0197 4.51879L23.8986 8.5995C23.9214 8.64569 23.9332 8.6967 23.9332 8.74843C23.9332 8.80016 23.9214 8.85116 23.8986 8.89736C23.8751 8.94286 23.8415 8.98211 23.8005 9.01199C23.7595 9.04187 23.7123 9.06154 23.6625 9.06946C23.4896 9.09875 23.3197 9.14417 23.1548 9.20515C22.8428 9.32365 22.5529 9.49604 22.2978 9.71482C22.1628 9.82984 22.0383 9.95723 21.9259 10.0954C21.8951 10.1332 21.8565 10.1635 21.8129 10.1841C21.7693 10.2047 21.7217 10.2151 21.6736 10.2146ZM20.3801 4.10178C20.1678 4.10307 19.9598 4.16358 19.7786 4.27679C19.5974 4.39001 19.4498 4.55164 19.3517 4.74431C19.2536 4.93698 19.2086 5.15338 19.2217 5.37023C19.2348 5.58708 19.3055 5.79617 19.426 5.975L21.7125 9.35408L21.8806 9.20184C22.1926 8.93466 22.547 8.72421 22.9284 8.57964L23.1451 8.51014L21.4279 4.78686C21.3592 4.63787 21.2611 4.50506 21.1398 4.39682C21.0184 4.28859 20.8765 4.20729 20.7229 4.15804C20.6087 4.12161 20.4899 4.10265 20.3704 4.10178H20.3801Z" fill="#529B3C"/>
<path d="M20.9715 11.7711C20.9233 11.7715 20.8756 11.7602 20.8325 11.738L16.8288 9.80524C16.6022 9.69579 16.4002 9.53941 16.2357 9.34599C16.0712 9.15256 15.9476 8.9263 15.873 8.68151C15.7983 8.43672 15.774 8.17874 15.8018 7.92387C15.8295 7.669 15.9087 7.42281 16.0342 7.20085C16.1597 6.97889 16.3288 6.786 16.5309 6.63438C16.733 6.48276 16.9637 6.37572 17.2083 6.32001C17.4529 6.26431 17.7061 6.26115 17.952 6.31076C18.1978 6.36036 18.4309 6.46164 18.6366 6.60818L22.2716 9.18965C22.3127 9.21876 22.3466 9.25722 22.3707 9.30201C22.3949 9.3468 22.4085 9.3967 22.4106 9.4478C22.4127 9.49864 22.4032 9.54927 22.383 9.59576C22.3628 9.64225 22.3324 9.68336 22.2942 9.71588C21.9016 10.0512 21.6016 10.4859 21.4243 10.9768C21.3643 11.1443 21.3199 11.3171 21.2917 11.4931C21.2836 11.5443 21.2639 11.5929 21.2341 11.6348C21.2043 11.6768 21.1653 11.711 21.1203 11.7347C21.0742 11.7589 21.0232 11.7713 20.9715 11.7711ZM17.6082 6.93914C17.5211 6.93941 17.4344 6.9494 17.3495 6.96893C17.1922 7.00489 17.044 7.07385 16.9142 7.17146C16.7843 7.26906 16.6757 7.39318 16.5951 7.53597C16.5146 7.67875 16.4639 7.83709 16.4462 8.00097C16.4285 8.16485 16.4443 8.3307 16.4925 8.48802C16.5406 8.64522 16.62 8.7905 16.7258 8.91468C16.8315 9.03886 16.9613 9.13925 17.1069 9.20951L20.7484 10.9669C20.7678 10.8941 20.7904 10.8213 20.8163 10.7485C20.9585 10.3616 21.1641 10.0023 21.4243 9.68609C21.4728 9.62652 21.5245 9.56695 21.573 9.51399L18.2679 7.16419C18.0756 7.02195 17.8454 6.94341 17.6082 6.93914Z" fill="#529B3C"/>
<path d="M16.5864 13.8549C16.3422 13.8546 16.1007 13.8038 15.8762 13.7054C15.6517 13.6071 15.449 13.4634 15.2802 13.2828C15.1114 13.1023 14.98 12.8886 14.8939 12.6548C14.8079 12.4209 14.7689 12.1717 14.7794 11.9221C14.7899 11.6724 14.8495 11.4275 14.9549 11.2021C15.0602 10.9766 15.209 10.7753 15.3923 10.6102C15.5756 10.4452 15.7896 10.3197 16.0215 10.2414C16.2534 10.1632 16.4983 10.1337 16.7416 10.1548L21.1463 10.5288C21.196 10.5331 21.244 10.549 21.2866 10.5754C21.3293 10.6019 21.3654 10.638 21.3921 10.681C21.419 10.7238 21.4359 10.7723 21.4415 10.8228C21.4471 10.8733 21.4413 10.9244 21.4244 10.9723C21.3649 11.141 21.3205 11.3149 21.2918 11.4919C21.2607 11.6599 21.2455 11.8306 21.2466 12.0016C21.2457 12.1702 21.2598 12.3386 21.2886 12.5046C21.3172 12.6816 21.3616 12.8555 21.4212 13.0242C21.438 13.072 21.4439 13.1232 21.4383 13.1737C21.4326 13.2242 21.4157 13.2727 21.3889 13.3155C21.3621 13.3585 21.326 13.3946 21.2834 13.421C21.2408 13.4475 21.1927 13.4634 21.1431 13.4677L16.7384 13.8483L16.5864 13.8549ZM16.5864 10.8101C16.4276 10.8072 16.2699 10.8377 16.123 10.8995C15.9761 10.9613 15.8431 11.0533 15.7322 11.1697C15.6213 11.2861 15.5349 11.4245 15.4782 11.5764C15.4215 11.7282 15.3958 11.8904 15.4027 12.0528C15.4095 12.2152 15.4488 12.3744 15.518 12.5207C15.5873 12.667 15.6851 12.7973 15.8053 12.9035C15.9256 13.0097 16.0658 13.0896 16.2174 13.1382C16.369 13.1869 16.5287 13.2033 16.6867 13.1864L20.7 12.8554C20.6839 12.7793 20.6677 12.7032 20.6548 12.6271C20.6195 12.4205 20.6011 12.2113 20.5998 12.0016C20.6 11.7929 20.6184 11.5847 20.6548 11.3794C20.6548 11.3065 20.6806 11.2304 20.6968 11.1543L16.6867 10.8233L16.5864 10.8101Z" fill="#529B3C"/>
<path d="M17.601 17.7274C17.4683 17.7266 17.336 17.711 17.2065 17.6811C16.8391 17.5962 16.5067 17.3961 16.2557 17.1088C16.0046 16.8215 15.8473 16.4612 15.8057 16.0782C15.764 15.6951 15.8401 15.3083 16.0234 14.9715C16.2066 14.6348 16.4879 14.3649 16.8281 14.1994L20.8318 12.2666C20.8765 12.2439 20.9257 12.2321 20.9757 12.2321C21.0256 12.2321 21.0749 12.2439 21.1196 12.2666C21.1646 12.2903 21.2036 12.3246 21.2334 12.3665C21.2632 12.4085 21.2829 12.457 21.291 12.5082C21.3196 12.6852 21.364 12.8591 21.4236 13.0278C21.5394 13.3472 21.7078 13.6438 21.9216 13.9049C22.034 14.0431 22.1585 14.1705 22.2935 14.2855C22.3317 14.318 22.3621 14.3591 22.3823 14.4056C22.4025 14.4521 22.412 14.5027 22.4099 14.5535C22.4078 14.6046 22.3942 14.6546 22.37 14.6993C22.3459 14.7441 22.312 14.7826 22.2709 14.8117L18.6359 17.3965C18.3324 17.6131 17.971 17.7287 17.601 17.7274ZM20.7477 13.0378L17.1062 14.7951C16.9605 14.8655 16.8306 14.966 16.7248 15.0904C16.6189 15.2148 16.5395 15.3603 16.4915 15.5177C16.4434 15.6751 16.4279 15.841 16.4457 16.0049C16.4636 16.1688 16.5145 16.3271 16.5952 16.4698C16.676 16.6122 16.7847 16.736 16.9145 16.8333C17.0442 16.9307 17.1923 16.9996 17.3493 17.0356C17.5063 17.0717 17.6688 17.0741 17.8268 17.0428C17.9848 17.0115 18.1347 16.9471 18.2672 16.8537L21.5691 14.5039C21.5206 14.4476 21.4688 14.3914 21.4203 14.3318C21.1593 14.0126 20.9536 13.6499 20.8124 13.2595C20.7897 13.1834 20.7671 13.1106 20.7477 13.0378Z" fill="#529B3C"/>
<path d="M20.3726 20.5607C20.0421 20.5606 19.7179 20.4679 19.4352 20.2927C19.1525 20.1174 18.9221 19.8664 18.7688 19.5667C18.6156 19.267 18.5454 18.9302 18.5659 18.5926C18.5863 18.255 18.6967 17.9296 18.8849 17.6516L21.4074 13.9317C21.4359 13.8896 21.4735 13.8549 21.5172 13.8302C21.561 13.8055 21.6098 13.7915 21.6597 13.7893C21.7094 13.7873 21.7588 13.7969 21.8043 13.8176C21.8497 13.8383 21.8899 13.8694 21.9216 13.9085C22.2493 14.3103 22.6741 14.6173 23.1538 14.7988C23.3174 14.8601 23.4863 14.9055 23.6583 14.9345C23.708 14.9424 23.7552 14.962 23.7962 14.9919C23.8372 15.0218 23.8708 15.061 23.8944 15.1066C23.9171 15.1527 23.929 15.2038 23.929 15.2555C23.929 15.3072 23.9171 15.3582 23.8944 15.4044L22.009 19.5017C21.863 19.8193 21.6315 20.0877 21.3416 20.2753C21.0517 20.4629 20.7155 20.562 20.3726 20.5607ZM21.7114 14.6498L19.4153 18.0322C19.3257 18.1677 19.2644 18.3207 19.2351 18.4815C19.2058 18.6424 19.2092 18.8077 19.245 18.9671C19.2809 19.1266 19.3485 19.2768 19.4435 19.4083C19.5386 19.5399 19.6591 19.65 19.7976 19.7318C19.9361 19.8136 20.0895 19.8653 20.2484 19.8837C20.4073 19.9022 20.5681 19.8869 20.721 19.8389C20.8738 19.791 21.0154 19.7113 21.1368 19.6048C21.2583 19.4984 21.357 19.3675 21.4268 19.2204L23.1441 15.4938L22.9306 15.4243C22.5524 15.2777 22.2013 15.0661 21.8925 14.7988L21.7114 14.6498Z" fill="#529B3C"/>
<path d="M24.1565 21.5995C23.9057 21.5999 23.6575 21.547 23.4278 21.4441C23.1981 21.3411 22.9918 21.1904 22.8221 21.0015C22.6524 20.8125 22.5229 20.5895 22.442 20.3466C22.361 20.1037 22.3304 19.8462 22.3519 19.5905L22.7173 15.0829C22.7215 15.0321 22.7371 14.9829 22.7629 14.9393C22.7887 14.8957 22.824 14.8587 22.8661 14.8314C22.9079 14.8039 22.9553 14.7866 23.0046 14.7808C23.054 14.7751 23.1039 14.781 23.1507 14.7983C23.3155 14.8592 23.4855 14.9047 23.6584 14.934C23.9857 14.9935 24.3207 14.9935 24.648 14.934C24.823 14.9028 24.995 14.8563 25.1622 14.795C25.209 14.7777 25.2589 14.7718 25.3083 14.7775C25.3576 14.7832 25.405 14.8005 25.4468 14.8281C25.4889 14.8554 25.5242 14.8924 25.55 14.936C25.5758 14.9796 25.5914 15.0288 25.5956 15.0796L25.961 19.5872C25.983 19.8432 25.9527 20.101 25.8719 20.3443C25.7912 20.5876 25.6618 20.811 25.4921 21.0003C25.3223 21.1896 25.1159 21.3407 24.8859 21.4438C24.656 21.547 24.4075 21.6 24.1565 21.5995ZM23.3286 15.5429L23.0052 19.6468C22.9932 19.8098 23.0143 19.9736 23.0671 20.128C23.1199 20.2823 23.2032 20.4238 23.3119 20.5436C23.4206 20.6635 23.5522 20.7591 23.6987 20.8244C23.8451 20.8898 24.0032 20.9236 24.1629 20.9236C24.3227 20.9236 24.4807 20.8898 24.6272 20.8244C24.7736 20.7591 24.9053 20.6635 25.0139 20.5436C25.1226 20.4238 25.2059 20.2823 25.2587 20.128C25.3115 19.9736 25.3326 19.8098 25.3207 19.6468L24.9973 15.5429L24.7709 15.5893C24.3709 15.6621 23.9614 15.6621 23.5614 15.5893C23.4773 15.576 23.4029 15.5595 23.3286 15.5429Z" fill="#529B3C"/>
<path d="M27.9426 20.5607C27.5996 20.562 27.2634 20.4629 26.9735 20.2753C26.6836 20.0877 26.4521 19.8193 26.3062 19.5017L24.4175 15.4044C24.3948 15.3582 24.3829 15.3072 24.3829 15.2555C24.3829 15.2038 24.3948 15.1527 24.4175 15.1066C24.4411 15.061 24.4747 15.0218 24.5157 14.9919C24.5567 14.962 24.6039 14.9424 24.6536 14.9345C24.8265 14.9052 24.9965 14.8597 25.1613 14.7988C25.4734 14.6803 25.7633 14.5079 26.0183 14.2891C26.1534 14.1741 26.2779 14.0467 26.3903 13.9085C26.422 13.8694 26.4622 13.8383 26.5076 13.8176C26.5531 13.7969 26.6025 13.7873 26.6522 13.7893C26.7021 13.7915 26.7509 13.8055 26.7947 13.8302C26.8384 13.8549 26.876 13.8896 26.9045 13.9317L29.427 17.6516C29.5665 17.8621 29.6625 18.0996 29.7088 18.3495C29.7551 18.5994 29.7509 18.8563 29.6963 19.1045C29.6418 19.3526 29.5381 19.5867 29.3916 19.7922C29.2451 19.9977 29.0591 20.1703 28.8448 20.2993C28.5713 20.465 28.2604 20.5551 27.9426 20.5607ZM25.171 15.4905L26.8883 19.217C26.957 19.3662 27.0553 19.4991 27.1768 19.6074C27.2983 19.7157 27.4405 19.797 27.5943 19.8462C27.7481 19.8953 27.9102 19.9113 28.0704 19.893C28.2305 19.8747 28.3852 19.8226 28.5247 19.74C28.6638 19.6573 28.7848 19.5461 28.8799 19.4133C28.9751 19.2805 29.0424 19.129 29.0776 18.9683C29.1128 18.8077 29.1152 18.6413 29.0846 18.4796C29.054 18.318 28.9911 18.1645 28.8998 18.0289L26.6037 14.6498L26.4355 14.8021C26.1236 15.0693 25.7692 15.2797 25.3877 15.4243L25.171 15.4905Z" fill="#529B3C"/>
<path d="M30.7107 17.7264C30.3407 17.7277 29.9793 17.6121 29.6758 17.3955L26.0408 14.814C25.9997 14.7849 25.9658 14.7465 25.9417 14.7017C25.9175 14.6569 25.9039 14.607 25.9018 14.5559C25.8997 14.505 25.9092 14.4544 25.9294 14.4079C25.9496 14.3614 25.9799 14.3203 26.0182 14.2878C26.4108 13.9525 26.7108 13.5177 26.8881 13.0268C26.9481 12.8594 26.9925 12.6865 27.0207 12.5105C27.0288 12.4594 27.0485 12.4108 27.0783 12.3688C27.1081 12.3269 27.147 12.2927 27.1921 12.2689C27.2368 12.2462 27.2861 12.2344 27.336 12.2344C27.386 12.2344 27.4352 12.2462 27.4799 12.2689L31.4836 14.2017C31.7099 14.3111 31.9116 14.4673 32.0759 14.6605C32.2403 14.8536 32.3637 15.0796 32.4385 15.324C32.5132 15.5684 32.5376 15.826 32.5102 16.0806C32.4828 16.3352 32.4041 16.5812 32.2792 16.8031C32.1529 17.0243 31.9835 17.2166 31.7815 17.368C31.5796 17.5195 31.3494 17.6268 31.1052 17.6834C30.9756 17.7122 30.8433 17.7266 30.7107 17.7264ZM26.7426 14.5029L30.0477 16.8527C30.1801 16.9444 30.3296 17.0072 30.4868 17.0372C30.6439 17.0672 30.8055 17.0637 30.9613 17.027C31.1171 16.9903 31.2638 16.9211 31.3924 16.8238C31.5209 16.7265 31.6285 16.6032 31.7084 16.4615C31.7884 16.3198 31.8389 16.1627 31.8569 16.0002C31.8749 15.8376 31.86 15.6729 31.8132 15.5165C31.7663 15.3601 31.6884 15.2152 31.5844 15.0909C31.4804 14.9667 31.3525 14.8656 31.2087 14.7942L27.564 13.0368C27.5446 13.1096 27.522 13.1824 27.4961 13.2552C27.3539 13.6421 27.1483 14.0013 26.8881 14.3176C26.8396 14.3904 26.7879 14.45 26.7426 14.5029Z" fill="#529B3C"/>
<path d="M31.7268 13.8549H31.5715L27.1669 13.4743C27.1172 13.47 27.0692 13.4541 27.0266 13.4277C26.9839 13.4013 26.9478 13.3651 26.9211 13.3221C26.8942 13.2793 26.8773 13.2308 26.8717 13.1803C26.8661 13.1298 26.8719 13.0787 26.8888 13.0308C26.9483 12.8621 26.9927 12.6882 27.0213 12.5112C27.0525 12.3432 27.0676 12.1725 27.0666 12.0016C27.0675 11.8329 27.0534 11.6645 27.0246 11.4985C26.9941 11.3194 26.9487 11.1434 26.8888 10.9723C26.8719 10.9245 26.8661 10.8733 26.8717 10.8228C26.8773 10.7723 26.8942 10.7238 26.9211 10.681C26.9478 10.638 26.9839 10.6019 27.0266 10.5755C27.0692 10.549 27.1172 10.5331 27.1669 10.5288L31.5748 10.1548C31.8182 10.1337 32.0633 10.1632 32.2953 10.2416C32.5273 10.3199 32.7414 10.4455 32.9247 10.6108C33.1081 10.776 33.2568 10.9776 33.3621 11.2032C33.4673 11.4288 33.5269 11.6739 33.5371 11.9237C33.5474 12.1735 33.5082 12.4229 33.4218 12.6567C33.3354 12.8906 33.2037 13.1042 33.0346 13.2846C32.8655 13.465 32.6624 13.6086 32.4376 13.7066C32.2129 13.8046 31.9711 13.8551 31.7268 13.8549ZM27.6164 12.862L31.6265 13.193C31.7866 13.2095 31.9484 13.1905 32.1007 13.1374C32.253 13.0843 32.3924 12.9983 32.5094 12.8852C32.6284 12.7739 32.7235 12.6384 32.7885 12.4874C32.8536 12.3364 32.8872 12.1732 32.8872 12.0082C32.8872 11.8432 32.8536 11.6799 32.7885 11.5289C32.7235 11.3779 32.6284 11.2425 32.5094 11.1311C32.3925 11.0189 32.2537 10.9333 32.102 10.8803C31.9503 10.8272 31.7893 10.8078 31.6298 10.8233L27.6164 11.1543C27.6164 11.2337 27.6487 11.3099 27.6617 11.386C27.6956 11.5893 27.7129 11.7952 27.7134 12.0016C27.7132 12.2102 27.6948 12.4184 27.6584 12.6238C27.6487 12.6966 27.6326 12.7727 27.6164 12.8488V12.862Z" fill="#529B3C"/>
<path d="M27.3408 11.7705C27.289 11.7707 27.238 11.7582 27.192 11.7341C27.1469 11.7103 27.1079 11.6761 27.0782 11.6342C27.0484 11.5922 27.0287 11.5437 27.0206 11.4925C26.992 11.3155 26.9476 11.1416 26.888 10.9728C26.7722 10.6535 26.6038 10.3569 26.39 10.0958C26.2776 9.95762 26.1531 9.83022 26.0181 9.71521C25.9798 9.68269 25.9494 9.64159 25.9292 9.59509C25.909 9.5486 25.8996 9.49797 25.9016 9.44713C25.9038 9.39603 25.9174 9.34613 25.9415 9.30134C25.9657 9.25655 25.9996 9.21809 26.0407 9.18899L29.6757 6.60751C29.8816 6.46105 30.115 6.3601 30.3611 6.31109C30.6072 6.26209 30.8606 6.26611 31.1051 6.32289C31.4725 6.40783 31.8048 6.60788 32.0559 6.89518C32.307 7.18248 32.4643 7.54275 32.5059 7.92583C32.5475 8.3089 32.4714 8.69573 32.2882 9.03247C32.1049 9.36921 31.8236 9.6391 31.4835 9.80457L27.4798 11.7374C27.4367 11.7595 27.389 11.7709 27.3408 11.7705ZM26.7425 9.50009C26.791 9.55635 26.8427 9.61261 26.8912 9.67218C27.1523 9.99142 27.358 10.3541 27.4992 10.7445C27.5251 10.8206 27.5477 10.8934 27.5671 10.9662L31.2054 9.20884C31.3511 9.13851 31.481 9.03797 31.5868 8.9136C31.6926 8.78923 31.7721 8.64374 31.8201 8.48632C31.8681 8.32891 31.8837 8.16301 31.8658 7.99911C31.848 7.83522 31.7971 7.67691 31.7163 7.5342C31.6355 7.3918 31.5268 7.26803 31.3971 7.17066C31.2673 7.07329 31.1193 7.00442 30.9623 6.96837C30.8053 6.93232 30.6427 6.92987 30.4848 6.96117C30.3268 6.99248 30.1769 7.05686 30.0444 7.15029L26.7425 9.50009Z" fill="#529B3C"/>
<path d="M26.6393 10.2158C26.5918 10.2159 26.5448 10.2053 26.5018 10.1847C26.4587 10.1641 26.4207 10.1341 26.3903 10.0967C26.0626 9.69486 25.6378 9.38791 25.1581 9.20641C24.9945 9.14507 24.8256 9.09964 24.6536 9.07072C24.6039 9.06281 24.5567 9.04313 24.5157 9.01325C24.4747 8.98338 24.4411 8.94413 24.4175 8.89862C24.3948 8.85243 24.3829 8.80142 24.3829 8.74969C24.3829 8.69796 24.3948 8.64696 24.4175 8.60076L26.3029 4.5035C26.4088 4.27311 26.5599 4.06751 26.7469 3.89954C26.9339 3.73156 27.1526 3.6048 27.3896 3.52717C27.6284 3.44995 27.8804 3.42448 28.1294 3.45237C28.3784 3.48026 28.6191 3.5609 28.836 3.68916C29.0529 3.81743 29.2413 3.9905 29.3892 4.19737C29.5372 4.40423 29.6415 4.64036 29.6954 4.89072C29.7501 5.141 29.7536 5.40015 29.7057 5.65189C29.6579 5.90363 29.5597 6.14252 29.4173 6.35356L26.9045 10.0735C26.876 10.1156 26.8384 10.1503 26.7947 10.175C26.7509 10.1997 26.7021 10.2137 26.6522 10.2158H26.6393ZM25.1678 8.51471C25.239 8.53457 25.3101 8.55774 25.3813 8.58421C25.7593 8.72979 26.1104 8.9402 26.4194 9.20641L26.5875 9.35865L28.8836 5.97626C28.9732 5.84074 29.0346 5.68779 29.0639 5.52694C29.0932 5.3661 29.0898 5.20079 29.0539 5.04134C29.0181 4.88189 28.9505 4.73171 28.8554 4.60016C28.7604 4.46861 28.6398 4.35851 28.5014 4.27672C28.3629 4.19493 28.2094 4.1432 28.0506 4.12476C27.8917 4.10633 27.7308 4.12157 27.578 4.16955C27.4251 4.21753 27.2836 4.29722 27.1621 4.40364C27.0407 4.51006 26.942 4.64094 26.8721 4.78812L25.1678 8.51471Z" fill="#529B3C"/>
<path d="M24.1576 15.6423C23.9537 15.6421 23.7502 15.6233 23.5496 15.5861C23.339 15.5511 23.1322 15.4957 22.9319 15.4206C22.5539 15.275 22.2028 15.0646 21.8938 14.7984C21.7225 14.6546 21.5654 14.4938 21.4249 14.3185C21.1638 13.9993 20.9582 13.6366 20.8169 13.2462C20.7439 13.0375 20.6888 12.8226 20.652 12.6042C20.6187 12.4051 20.6014 12.2037 20.6002 12.0018C20.6041 11.5743 20.6773 11.1504 20.8169 10.7475C20.9592 10.3606 21.1648 10.0013 21.4249 9.6851C21.5654 9.50978 21.7225 9.34904 21.8938 9.20521C22.2057 8.93803 22.5602 8.72758 22.9416 8.58301C23.1455 8.50794 23.3554 8.45146 23.569 8.41422C23.969 8.34142 24.3785 8.34142 24.7785 8.41422C24.9891 8.44917 25.1959 8.50458 25.3962 8.5797C25.7699 8.72763 26.1165 8.93911 26.4214 9.20521C26.5927 9.34904 26.7498 9.50978 26.8903 9.6851C27.1514 10.0043 27.357 10.367 27.4983 10.7574C27.5713 10.9662 27.6264 11.181 27.6632 11.3995C27.6965 11.5985 27.7138 11.7999 27.715 12.0018C27.7111 12.4293 27.6379 12.8532 27.4983 13.2561C27.356 13.643 27.1504 14.0023 26.8903 14.3185C26.7498 14.4938 26.5927 14.6546 26.4214 14.7984C26.1094 15.0656 25.755 15.276 25.3736 15.4206C25.1697 15.4957 24.9598 15.5522 24.7462 15.5894C24.5517 15.6234 24.3549 15.6411 24.1576 15.6423ZM24.1576 9.02319C23.9928 9.02229 23.8283 9.03669 23.666 9.06621C23.4911 9.09739 23.319 9.1439 23.1518 9.20521C22.8398 9.32371 22.5499 9.4961 22.2948 9.71489C21.9022 10.0502 21.6022 10.485 21.4249 10.9758C21.3649 11.1433 21.3205 11.3162 21.2923 11.4921C21.2612 11.6601 21.246 11.8308 21.247 12.0018C21.2461 12.1704 21.2602 12.3388 21.2891 12.5049C21.3195 12.6839 21.365 12.86 21.4249 13.0311C21.5407 13.3504 21.7091 13.6471 21.9229 13.9081C22.2506 14.31 22.6754 14.6169 23.1551 14.7984C23.3187 14.8597 23.4876 14.9052 23.6596 14.9341C23.9869 14.9937 24.3219 14.9937 24.6492 14.9341C24.8241 14.9029 24.9962 14.8564 25.1634 14.7951C25.4754 14.6766 25.7653 14.5042 26.0204 14.2854C26.413 13.9501 26.713 13.5153 26.8903 13.0245C26.9502 12.857 26.9946 12.6842 27.0229 12.5082C27.0538 12.3413 27.069 12.1717 27.0682 12.0018C27.069 11.8332 27.055 11.6648 27.0261 11.4988C26.9957 11.3197 26.9502 11.1436 26.8903 10.9725C26.7745 10.6532 26.6061 10.3565 26.3923 10.0955C26.0646 9.69366 25.6398 9.38671 25.1601 9.20521C24.9965 9.14387 24.8276 9.09844 24.6556 9.06952C24.4915 9.03765 24.3247 9.02214 24.1576 9.02319Z" fill="#529B3C"/>
</svg>
