<svg width="25" height="24" viewBox="0 0 25 24" fill="none" xmlns="http://www.w3.org/2000/svg">
<path d="M12.4486 12C12.9986 12 13.4694 11.8042 13.8611 11.4125C14.2528 11.0208 14.4486 10.55 14.4486 10C14.4486 9.45 14.2528 8.97917 13.8611 8.5875C13.4694 8.19583 12.9986 8 12.4486 8C11.8986 8 11.4278 8.19583 11.0361 8.5875C10.6444 8.97917 10.4486 9.45 10.4486 10C10.4486 10.55 10.6444 11.0208 11.0361 11.4125C11.4278 11.8042 11.8986 12 12.4486 12ZM12.4486 19.35C14.4819 17.4833 15.9903 15.7875 16.9736 14.2625C17.9569 12.7375 18.4486 11.3833 18.4486 10.2C18.4486 8.38333 17.8694 6.89583 16.7111 5.7375C15.5528 4.57917 14.1319 4 12.4486 4C10.7653 4 9.34444 4.57917 8.18611 5.7375C7.02778 6.89583 6.44861 8.38333 6.44861 10.2C6.44861 11.3833 6.94028 12.7375 7.92361 14.2625C8.90694 15.7875 10.4153 17.4833 12.4486 19.35ZM12.4486 22C9.76528 19.7167 7.76111 17.5958 6.43611 15.6375C5.11111 13.6792 4.44861 11.8667 4.44861 10.2C4.44861 7.7 5.25278 5.70833 6.86111 4.225C8.46944 2.74167 10.3319 2 12.4486 2C14.5653 2 16.4278 2.74167 18.0361 4.225C19.6444 5.70833 20.4486 7.7 20.4486 10.2C20.4486 11.8667 19.7861 13.6792 18.4611 15.6375C17.1361 17.5958 15.1319 19.7167 12.4486 22Z" fill="white"/>
</svg>
