<svg width="10" height="10" viewBox="0 0 10 10" fill="none" xmlns="http://www.w3.org/2000/svg">
<path d="M5 7.5C5.14167 7.5 5.26042 7.45208 5.35625 7.35625C5.45208 7.26042 5.5 7.14167 5.5 7C5.5 6.85833 5.45208 6.73958 5.35625 6.64375C5.26042 6.54792 5.14167 6.5 5 6.5C4.85833 6.5 4.73958 6.54792 4.64375 6.64375C4.54792 6.73958 4.5 6.85833 4.5 7C4.5 7.14167 4.54792 7.26042 4.64375 7.35625C4.73958 7.45208 4.85833 7.5 5 7.5ZM4.5 5.5H5.5V2.5H4.5V5.5ZM5 10C4.30833 10 3.65833 9.86875 3.05 9.60625C2.44167 9.34375 1.9125 8.9875 1.4625 8.5375C1.0125 8.0875 0.65625 7.55833 0.39375 6.95C0.13125 6.34167 0 5.69167 0 5C0 4.30833 0.13125 3.65833 0.39375 3.05C0.65625 2.44167 1.0125 1.9125 1.4625 1.4625C1.9125 1.0125 2.44167 0.65625 3.05 0.39375C3.65833 0.13125 4.30833 0 5 0C5.69167 0 6.34167 0.13125 6.95 0.39375C7.55833 0.65625 8.0875 1.0125 8.5375 1.4625C8.9875 1.9125 9.34375 2.44167 9.60625 3.05C9.86875 3.65833 10 4.30833 10 5C10 5.69167 9.86875 6.34167 9.60625 6.95C9.34375 7.55833 8.9875 8.0875 8.5375 8.5375C8.0875 8.9875 7.55833 9.34375 6.95 9.60625C6.34167 9.86875 5.69167 10 5 10ZM5 9C6.11667 9 7.0625 8.6125 7.8375 7.8375C8.6125 7.0625 9 6.11667 9 5C9 3.88333 8.6125 2.9375 7.8375 2.1625C7.0625 1.3875 6.11667 1 5 1C3.88333 1 2.9375 1.3875 2.1625 2.1625C1.3875 2.9375 1 3.88333 1 5C1 6.11667 1.3875 7.0625 2.1625 7.8375C2.9375 8.6125 3.88333 9 5 9Z" fill="#FF0000" fill-opacity="0.87"/>
</svg>
