<svg width="76" height="40" viewBox="0 0 76 40" fill="none" xmlns="http://www.w3.org/2000/svg">
<path d="M26.9355 19.3989H23.7535C23.7256 19.3989 23.7256 19.3989 23.7256 19.371V14.0116C23.7256 13.9837 23.7256 13.9837 23.7535 13.9837H26.9355C28.4428 13.9837 29.643 15.184 29.643 16.6913C29.643 18.1707 28.4428 19.3989 26.9355 19.3989Z" fill="#5FB546"/>
<path d="M18.115 18.4804C18.115 20.881 16.3566 22.0254 16.3566 22.0254C16.3566 22.0254 14.626 20.881 14.626 18.4804C14.626 16.0799 16.3566 14.9354 16.3566 14.9354C16.3845 14.9354 18.115 16.0799 18.115 18.4804Z" fill="#5FB546"/>
<path d="M8.93155 13.3447H6.25195V16.6664H8.93155V13.3447Z" fill="#5FB546"/>
<path d="M43.9345 30.007C42.9296 30.007 42.0923 29.7837 41.3665 29.365C40.6687 28.9463 40.1105 28.3043 39.7197 27.5227C39.3289 26.7411 39.1335 25.792 39.1335 24.6755C39.1335 22.9449 39.5801 21.605 40.5013 20.7118C41.3945 19.8186 42.5668 19.3719 43.9345 19.3719C44.7998 19.3719 45.5813 19.5394 46.2791 19.9023C46.977 20.2652 47.5631 20.8514 48.0376 21.6329C48.4842 22.4145 48.7354 23.3915 48.7354 24.5639C48.7354 26.4061 48.2609 27.8018 47.3398 28.695C46.4187 29.5604 45.2743 30.007 43.9345 30.007ZM44.1299 21.1305C43.2646 21.1305 42.7622 21.4096 42.2877 22.1075C41.8411 22.7774 41.6178 23.6427 41.6178 24.6755C41.6178 25.4571 41.7294 26.0991 41.9527 26.6574C42.176 27.1877 42.483 27.5785 42.8738 27.8576C43.2925 28.1368 43.6833 28.2484 44.2415 28.2484C45.1068 28.2484 45.4697 27.9414 45.9442 27.2994C46.4187 26.6574 46.642 25.7641 46.642 24.6197C46.642 23.559 46.3908 22.6936 45.9163 22.0516C45.3859 21.3817 44.9114 21.1305 44.1299 21.1305Z" fill="black"/>
<path d="M55.1274 30.007C54.1225 30.007 53.2851 29.7837 52.5594 29.365C51.8616 28.9463 51.3033 28.3043 50.9126 27.5227C50.5218 26.7411 50.3264 25.792 50.3264 24.6755C50.3264 22.9449 50.773 21.605 51.6941 20.7118C52.5873 19.8186 53.7596 19.3719 55.1274 19.3719C55.9926 19.3719 56.7742 19.5394 57.472 19.9023C58.1698 20.2652 58.756 20.8514 59.2305 21.6329C59.6771 22.4145 59.9283 23.3915 59.9283 24.5639C59.9283 26.4061 59.4538 27.8018 58.5327 28.695C57.6116 29.5604 56.4672 30.007 55.1274 30.007ZM55.3228 21.1305C54.4575 21.1305 53.955 21.4096 53.4805 22.1075C53.0339 22.7774 52.8106 23.6427 52.8106 24.6755C52.8106 25.4571 52.9223 26.0991 53.1456 26.6574C53.3689 27.1877 53.6759 27.5785 54.0667 27.8576C54.4854 28.1368 54.8761 28.2484 55.4344 28.2484C56.2997 28.2484 56.6626 27.9414 57.1371 27.2994C57.6116 26.6574 57.8349 25.7641 57.8349 24.6197C57.8349 23.559 57.5837 22.6936 57.1091 22.0516C56.5788 21.3817 56.1043 21.1305 55.3228 21.1305Z" fill="black"/>
<path d="M75.978 30.007H73.8845V23.4752C73.8845 21.9679 73.3542 21.2142 72.2935 21.2142C70.7862 21.2142 70.0326 22.1075 70.0326 23.9777V30.007H67.9113V23.3077C67.9113 21.4655 67.0181 21.2421 66.3202 21.2421C65.8178 21.2421 65.3991 21.3538 65.0642 21.5771C64.7292 21.8004 64.478 22.1354 64.3105 22.582C64.1431 23.0565 64.0593 23.7265 64.0593 24.6197V30.0349H61.5193V19.5953H63.8639V20.6001C64.5897 19.7906 65.5387 19.3719 66.711 19.3719C68.1345 19.3719 69.0836 19.9023 69.586 20.9072C70.3955 19.8744 71.4282 19.3719 72.6285 19.3719C74.8336 19.3719 75.95 20.5722 75.95 22.9449V30.007H75.978Z" fill="black"/>
<path d="M37.5424 30.007H35.6165V15.827H37.5424V30.007Z" fill="black"/>
<path d="M31.1783 19.3719C31.2062 19.344 31.262 19.2882 31.2899 19.2603C32.1552 18.395 32.7134 17.1668 32.7134 15.8269C32.7134 13.1472 30.5363 10.97 27.8567 10.97H24.6467V8.56944L12.2536 0L0 8.56944V17.0272H5.8058V19.344H0V29.9791H17.8919V23.9498C18.5339 23.4473 20.5436 21.5492 20.5436 18.3112C20.5436 14.515 17.222 12.5611 17.222 12.5611C17.222 12.5611 13.8167 14.5429 13.8167 18.3112C13.8167 22.0237 16.4684 23.8381 16.6638 23.9498V27.8018H2.17718V20.8514H7.03395V17.0272H11.2208V10.97H5.77789V15.799H2.14927V9.37893L12.2257 2.51221L22.3858 9.37893V30.007H28.1916C29.7826 30.007 31.2062 29.365 32.2389 28.3322C33.2717 27.2994 33.9137 25.8758 33.9137 24.2847C33.9416 22.1912 32.853 20.3768 31.1783 19.3719ZM15.0727 18.3112C15.0727 16.0223 16.6638 14.6825 17.2499 14.18C17.8361 14.6825 19.0642 15.9944 19.0642 18.3112C19.0642 20.6001 17.8361 21.9679 17.2499 22.4703C16.6358 21.9679 15.0727 20.6281 15.0727 18.3112ZM7.03395 12.4773H9.71355V15.799H7.03395V12.4773ZM24.6467 13.0914H27.8846C29.3919 13.0914 30.62 14.3196 30.62 15.8269C30.62 16.5806 30.313 17.2505 29.8105 17.753C29.336 18.2275 28.694 18.5345 27.9962 18.5625C27.9683 18.5625 27.9125 18.5625 27.8846 18.5625H24.6467V13.0914ZM30.7596 26.7969C30.1176 27.4389 29.2244 27.8576 28.2195 27.8576H24.6467V20.6839H28.2195C30.2013 20.6839 31.7923 22.2749 31.7923 24.2568C31.8202 25.2617 31.4016 26.1549 30.7596 26.7969Z" fill="black"/>
<path d="M0 39.9162V31.598H1.08859V35.0314H5.41503V31.598H6.50361V39.9162H5.41503V35.9804H1.08859V39.9162H0Z" fill="black"/>
<path d="M8.29004 36.762C8.29004 35.6455 8.56916 34.836 9.15532 34.3335C9.74149 33.859 10.3835 33.6078 11.1092 33.6078C11.9745 33.6078 12.6444 33.8869 13.1747 34.4452C13.6771 35.0035 13.9284 35.7571 13.9284 36.6783C13.9284 37.7948 13.6492 38.6043 13.1189 39.1347C12.5886 39.665 11.9187 39.9162 11.1092 39.9162C10.1323 39.9162 9.40654 39.6092 8.95994 38.9951C8.54125 38.381 8.29004 37.6552 8.29004 36.762ZM9.35071 36.762C9.35071 37.4598 9.51819 38.046 9.82523 38.4368C10.1323 38.8555 10.5789 39.0509 11.1371 39.0509C11.7233 39.0509 12.1699 38.8276 12.4769 38.381C12.756 37.9344 12.9235 37.3761 12.9235 36.7062C12.9235 36.0921 12.7839 35.5617 12.5048 35.1151C12.2257 34.6685 11.7791 34.4452 11.165 34.4452C10.5789 34.4452 10.1323 34.6685 9.82523 35.0872C9.49028 35.5617 9.35071 36.12 9.35071 36.762Z" fill="black"/>
<path d="M19.5667 39.7767V38.8834C19.0922 39.5534 18.4502 39.8883 17.6407 39.8883C17.1104 39.8883 16.6917 39.7767 16.3567 39.5534C16.0497 39.33 15.8264 39.0788 15.7427 38.7439C15.631 38.4368 15.5752 37.9902 15.5752 37.4319V33.6915H16.608V37.0411C16.608 37.5157 16.6359 37.8785 16.6638 38.1298C16.6917 38.381 16.8313 38.5764 17.0266 38.7439C17.222 38.9113 17.5012 38.9951 17.8361 38.9951C18.3385 38.9951 18.7293 38.8555 19.0084 38.5485C19.2876 38.2414 19.4271 37.7111 19.4271 36.9295V33.6915H20.4599V39.7208H19.5667V39.7767Z" fill="black"/>
<path d="M22.1067 37.9902L23.1115 37.8227C23.2232 38.6601 23.7535 39.0788 24.6746 39.0788C25.5958 39.0788 26.0703 38.7718 26.0703 38.1298C26.0703 37.9064 25.9865 37.739 25.819 37.6273C25.6516 37.5157 25.2887 37.3761 24.7305 37.2365C24.1164 37.069 23.6419 36.9574 23.3628 36.8457C23.0557 36.7341 22.8045 36.5387 22.6091 36.2875C22.4137 36.0362 22.3021 35.7292 22.3021 35.3663C22.3021 34.8639 22.4975 34.4452 22.8882 34.1102C23.279 33.7753 23.8373 33.6357 24.5072 33.6357C25.9586 33.6357 26.7402 34.194 26.9076 35.3384L25.9028 35.478C25.819 34.808 25.3724 34.501 24.5909 34.501C23.7256 34.501 23.279 34.7522 23.279 35.2826C23.279 35.5059 23.3628 35.6455 23.5023 35.7571C23.6419 35.8688 24.0606 36.0083 24.7025 36.1758C25.4004 36.3712 25.8749 36.5108 26.154 36.6224C26.4052 36.7341 26.6285 36.9016 26.8518 37.1528C27.0472 37.404 27.1589 37.7111 27.1589 38.0739C27.1589 38.6601 26.9355 39.1067 26.4889 39.4696C26.0423 39.8046 25.4562 40 24.7305 40C23.1953 39.9162 22.33 39.2742 22.1067 37.9902Z" fill="black"/>
<path d="M32.9089 37.8506L33.9695 37.9902C33.6067 39.2742 32.7414 39.9441 31.3179 39.9441C30.7875 39.9441 30.2851 39.8325 29.8664 39.6371C29.4477 39.4138 29.1128 39.0788 28.8337 38.6322C28.5545 38.1577 28.4429 37.5715 28.4429 36.8457C28.4429 36.2316 28.5545 35.6734 28.7499 35.1988C28.9453 34.7243 29.2802 34.3335 29.6989 34.0544C30.1176 33.7752 30.648 33.6357 31.262 33.6357C31.904 33.6357 32.4344 33.8032 32.853 34.1102C33.2717 34.4173 33.5788 34.808 33.7462 35.2826C33.9137 35.7292 33.9975 36.3433 33.9975 37.069H29.5036C29.5315 37.711 29.7268 38.2135 30.0339 38.5764C30.3688 38.9392 30.7875 39.1346 31.3179 39.1346C32.0715 39.0788 32.6018 38.6601 32.9089 37.8506ZM29.5594 36.2037H32.9368C32.881 35.6175 32.7135 35.1988 32.4064 34.8918C32.0994 34.6127 31.7365 34.4452 31.2899 34.4452C30.8154 34.4452 30.3968 34.6127 30.0897 34.9197C29.7548 35.2547 29.5873 35.6734 29.5594 36.2037Z" fill="black"/>
</svg>
