<svg width="45" height="48" viewBox="0 0 45 48" fill="none" xmlns="http://www.w3.org/2000/svg">
<g clip-path="url(#clip0_301_3739)">
<path d="M7.13761 36.2535C7.20471 36.2555 7.27183 36.2566 7.33879 36.2566C7.61818 36.2565 7.89725 36.2385 8.17426 36.2026V46.8601C8.17426 47.0506 8.2499 47.2333 8.38454 47.3681C8.51919 47.5028 8.70183 47.5785 8.89228 47.5785H43.5348C43.7253 47.5785 43.9078 47.5028 44.0425 47.3681C44.1772 47.2333 44.2528 47.0506 44.2528 46.8601V20.2701C44.2528 20.1581 44.2267 20.0476 44.1764 19.9475C44.1261 19.8474 44.0532 19.7605 43.9633 19.6936L26.6421 6.80198C26.5182 6.70978 26.3679 6.66 26.2136 6.66C26.0592 6.66 25.9089 6.70978 25.7851 6.80197L10.7889 17.9631V4.27306C10.7889 3.35687 10.4252 2.47818 9.77771 1.83032C9.13024 1.18246 8.25212 0.818481 7.33646 0.818481C6.4208 0.818481 5.54266 1.18246 4.8952 1.83032C4.24775 2.47818 3.88403 3.35687 3.88403 4.27306V24.4477C2.93386 25.0513 2.16036 25.8962 1.64264 26.8967C1.11894 27.9087 0.876143 29.0428 0.939569 30.1806C1.02946 31.784 1.71507 33.296 2.86182 34.4197C4.00856 35.5432 5.53362 36.1973 7.13761 36.2535ZM4.94776 25.4861C5.06047 25.4242 5.15454 25.333 5.22002 25.2222C5.28549 25.1115 5.32004 24.9852 5.32006 24.8565V4.27305C5.32006 3.7379 5.53251 3.22467 5.91066 2.84628C6.28881 2.46789 6.80169 2.25532 7.33646 2.25532C7.87123 2.25532 8.3841 2.46789 8.76225 2.84628C9.14038 3.22467 9.35282 3.7379 9.35282 4.27305V24.8565C9.35291 24.9852 9.3874 25.1115 9.45291 25.2222C9.51833 25.333 9.61238 25.4242 9.72509 25.4861C10.7043 26.0233 11.4742 26.8748 11.9107 27.9033C12.3471 28.9318 12.4247 30.0774 12.1309 31.1555C11.837 32.2335 11.1889 33.1811 10.291 33.8454C9.39309 34.5097 8.2978 34.8521 7.18168 34.8173C6.09206 34.7833 5.04384 34.3917 4.19852 33.7029C3.35319 33.0141 2.75766 32.0662 2.50368 31.0054C2.2497 29.9445 2.35138 28.8295 2.79303 27.8322C3.23469 26.8349 3.99182 26.0105 4.94776 25.4861ZM42.8168 46.1417H9.61033V35.8415C10.7111 35.4229 11.6757 34.7088 12.3977 33.7772C13.1298 32.8326 13.5834 31.7021 13.7073 30.5133C13.8312 29.3245 13.6206 28.1245 13.0991 27.0492C12.5833 25.9854 11.7837 25.0853 10.789 24.4482V19.754L26.2136 8.27383L42.8169 20.631L42.8168 46.1417Z" fill="#529B3C"/>
<path d="M0.939569 30.1806C0.876143 29.0428 1.11894 27.9087 1.64264 26.8967C2.16036 25.8962 2.93386 25.0513 3.88403 24.4477V4.27306C3.88403 3.35687 4.24775 2.47818 4.8952 1.83032C5.54266 1.18246 6.4208 0.818481 7.33646 0.818481C8.25212 0.818481 9.13024 1.18246 9.77771 1.83032C10.4252 2.47818 10.7889 3.35687 10.7889 4.27306V17.9631L25.7851 6.80197C25.9089 6.70978 26.0592 6.66 26.2136 6.66C26.3679 6.66 26.5182 6.70978 26.6421 6.80198L43.9633 19.6936C44.0532 19.7605 44.1261 19.8474 44.1764 19.9475C44.2267 20.0476 44.2528 20.1581 44.2528 20.2701V46.8601C44.2528 47.0506 44.1772 47.2333 44.0425 47.3681C43.9078 47.5028 43.7253 47.5785 43.5348 47.5785H8.89228C8.70183 47.5785 8.51919 47.5028 8.38454 47.3681C8.2499 47.2333 8.17426 47.0506 8.17426 46.8601V36.2026C7.89725 36.2385 7.61818 36.2565 7.33879 36.2566C7.27183 36.2566 7.20471 36.2555 7.13761 36.2535C5.53362 36.1973 4.00856 35.5432 2.86182 34.4197C1.71507 33.296 1.02946 31.784 0.939569 30.1806ZM0.939569 30.1806L1.00988 30.1767M4.94776 25.4861C5.06047 25.4242 5.15454 25.333 5.22002 25.2222C5.28549 25.1115 5.32004 24.9852 5.32006 24.8565V4.27305C5.32006 3.7379 5.53251 3.22467 5.91066 2.84628C6.28881 2.46789 6.80169 2.25532 7.33646 2.25532C7.87123 2.25532 8.3841 2.46789 8.76225 2.84628C9.14038 3.22467 9.35282 3.7379 9.35282 4.27305V24.8565C9.35291 24.9852 9.3874 25.1115 9.45291 25.2222C9.51833 25.333 9.61238 25.4242 9.72509 25.4861C10.7043 26.0233 11.4742 26.8748 11.9107 27.9033C12.3471 28.9318 12.4247 30.0774 12.1309 31.1555C11.837 32.2335 11.1889 33.1811 10.291 33.8454C9.39309 34.5097 8.2978 34.8521 7.18168 34.8173C6.09206 34.7833 5.04384 34.3917 4.19852 33.7029C3.35319 33.0141 2.75766 32.0662 2.50368 31.0054C2.2497 29.9445 2.35138 28.8295 2.79303 27.8322C3.23469 26.8349 3.99182 26.0105 4.94776 25.4861ZM42.8168 46.1417H9.61033V35.8415C10.7111 35.4229 11.6757 34.7088 12.3977 33.7772C13.1298 32.8326 13.5834 31.7021 13.7073 30.5133C13.8312 29.3245 13.6206 28.1245 13.0991 27.0492C12.5833 25.9854 11.7837 25.0853 10.789 24.4482V19.754L26.2136 8.27383L42.8169 20.631L42.8168 46.1417Z" stroke="#529B3C" stroke-width="0.158449"/>
<path d="M26.1318 29.6017C25.4886 28.1585 24.4482 26.9269 23.1305 26.0518C21.7676 25.1467 20.1685 24.6631 18.5328 24.6614H17.9524C17.762 24.6614 17.5794 24.7371 17.4447 24.8719C17.31 25.0065 17.2344 25.1893 17.2344 25.3798V25.9605C17.237 28.155 18.1049 30.2599 19.6495 31.8178C21.1776 33.3592 23.2461 34.2421 25.4138 34.2802V38.8848C22.666 39.0078 19.999 39.855 17.6831 41.3412C17.6028 41.3917 17.5334 41.4576 17.4786 41.5351C17.4239 41.6127 17.3851 41.7003 17.3644 41.7929C17.3437 41.8856 17.3417 41.9816 17.3582 42.075C17.3748 42.1685 17.4098 42.2578 17.461 42.3377C17.5123 42.4176 17.5789 42.4865 17.657 42.5406C17.7351 42.5945 17.8231 42.6325 17.916 42.6522C18.0088 42.672 18.1046 42.6731 18.1979 42.6555C18.2911 42.638 18.3798 42.6022 18.459 42.5502C20.7496 41.0832 23.4122 40.3034 26.1318 40.3034C28.8514 40.3034 31.514 41.0831 33.8045 42.5502C33.8838 42.6022 33.9725 42.638 34.0657 42.6555C34.159 42.6731 34.2548 42.672 34.3477 42.6522C34.4405 42.6325 34.5285 42.5945 34.6066 42.5406C34.6847 42.4865 34.7514 42.4176 34.8026 42.3377C34.8539 42.2578 34.8889 42.1685 34.9054 42.075C34.922 41.9816 34.9199 41.8856 34.8992 41.7929C34.8786 41.7003 34.8397 41.6127 34.785 41.5351C34.7303 41.4576 34.6608 41.3917 34.5806 41.3413C32.2646 39.855 29.5976 39.0078 26.8498 38.8848V34.2802C29.0175 34.2421 31.0859 33.3592 32.6141 31.8178C34.1587 30.2599 35.0266 28.1551 35.0291 25.9606V25.3798C35.0291 25.1893 34.9535 25.0065 34.8189 24.8719C34.6842 24.7371 34.5016 24.6614 34.3112 24.6614H33.7309C32.0951 24.6631 30.496 25.1467 29.133 26.0519C27.8154 26.9269 26.7749 28.1585 26.1318 29.6017ZM23.3962 28.1172C24.6529 29.3746 25.3746 31.0686 25.4123 32.8446C23.6375 32.8068 21.9446 32.0847 20.688 30.8272C19.4314 29.5698 18.7097 27.8759 18.6719 26.0999C20.4467 26.1376 22.1396 26.8598 23.3962 28.1172ZM28.8674 28.1172C30.124 26.8598 31.8169 26.1376 33.5917 26.0999C33.5539 27.8759 32.8322 29.5698 31.5756 30.8272C30.319 32.0847 28.6261 32.8068 26.8513 32.8446C26.889 31.0686 27.6107 29.3746 28.8674 28.1172Z" fill="#529B3C" stroke="#529B3C" stroke-width="0.158449"/>
<path d="M7.97378 26.8658V5.73649C7.97378 5.54597 7.89815 5.36324 7.7635 5.22851C7.62885 5.09377 7.44621 5.01807 7.25577 5.01807C7.06532 5.01807 6.88269 5.09377 6.74804 5.22851C6.61339 5.36324 6.53776 5.54597 6.53776 5.73649V26.8658C5.81016 27.0384 5.16822 27.4674 4.73025 28.0754C4.28121 28.6988 4.07827 29.4663 4.16047 30.2304C4.24266 30.9944 4.60418 31.701 5.17553 32.2145C5.7469 32.728 6.48777 33.012 7.25577 33.012C8.02376 33.012 8.76464 32.728 9.33602 32.2145C9.9074 31.701 10.2689 30.9944 10.351 30.2304C10.4333 29.4663 10.2303 28.6988 9.78127 28.0754C9.34331 27.4674 8.70138 27.0384 7.97378 26.8658ZM7.25569 31.5737C6.92403 31.5737 6.59983 31.4753 6.32407 31.2909C6.04828 31.1065 5.83333 30.8444 5.70641 30.5377C5.57947 30.2311 5.54627 29.8936 5.61099 29.5681C5.67572 29.2425 5.83545 28.9435 6.07001 28.7088C6.30456 28.4742 6.60338 28.3144 6.9287 28.2496C7.25401 28.1848 7.59121 28.2181 7.89764 28.3451C8.20408 28.4721 8.46601 28.6872 8.65028 28.9632C8.83455 29.2391 8.93291 29.5636 8.93292 29.8955C8.93242 30.3405 8.75554 30.7671 8.4411 31.0817C8.12666 31.3963 7.70034 31.5733 7.25569 31.5737Z" fill="#529B3C" stroke="#529B3C" stroke-width="0.158449"/>
<path d="M23.0852 22.0857C23.0853 22.2761 23.1609 22.4587 23.2955 22.5934C23.4301 22.7281 23.6127 22.8038 23.8032 22.8038C23.9936 22.8038 24.1763 22.7281 24.311 22.5934C24.4455 22.4586 24.5212 22.276 24.5212 22.0854V22.0836C24.5174 21.9313 24.5726 21.7834 24.6752 21.6709L24.6794 21.666C24.9503 21.3084 25.0968 20.872 25.0968 20.4233C25.0968 19.9745 24.9503 19.5382 24.6794 19.1806L24.6764 19.1769C24.5764 19.0617 24.5213 18.9142 24.5212 18.7616C24.5212 18.6089 24.5763 18.4614 24.6763 18.3461L24.6788 18.3431C24.9541 17.9876 25.1014 17.5496 25.0968 17.0999M23.0852 22.0857C23.0807 21.636 23.2279 21.1977 23.5031 20.8421L23.5055 20.839C23.6056 20.7237 23.6608 20.5761 23.6608 20.4233C23.6608 20.2705 23.6057 20.1229 23.5056 20.0075L23.5025 20.0041C23.2316 19.6465 23.0852 19.21 23.0852 18.7614C23.0852 18.3127 23.2319 17.8763 23.5028 17.5189L23.5067 17.5137C23.6092 17.4015 23.6646 17.254 23.6608 17.1019V17.1002C23.6608 16.9097 23.7365 16.727 23.8711 16.5922C24.0057 16.4575 24.1884 16.3818 24.3789 16.3818C24.5693 16.3818 24.7519 16.4575 24.8865 16.5922C25.0211 16.7269 25.0967 16.9095 25.0968 17.0999" fill="#529B3C"/>
<path d="M23.0852 22.0857C23.0853 22.2761 23.1609 22.4587 23.2955 22.5934C23.4301 22.7281 23.6127 22.8038 23.8032 22.8038C23.9936 22.8038 24.1763 22.7281 24.311 22.5934C24.4455 22.4586 24.5212 22.276 24.5212 22.0854V22.0836C24.5174 21.9313 24.5726 21.7834 24.6752 21.6709L24.6794 21.666C24.9503 21.3084 25.0968 20.872 25.0968 20.4233C25.0968 19.9745 24.9503 19.5382 24.6794 19.1806L24.6764 19.1769C24.5764 19.0617 24.5213 18.9142 24.5212 18.7616C24.5212 18.6089 24.5763 18.4614 24.6763 18.3461L24.6788 18.3431C24.9541 17.9876 25.1014 17.5496 25.0968 17.0999M23.0852 22.0857C23.0807 21.636 23.2279 21.1977 23.5031 20.8421L23.5055 20.839C23.6056 20.7237 23.6608 20.5761 23.6608 20.4233C23.6608 20.2705 23.6057 20.1229 23.5056 20.0075L23.5025 20.0041C23.2316 19.6465 23.0852 19.21 23.0852 18.7614C23.0852 18.3127 23.2319 17.8763 23.5028 17.5189L23.5067 17.5137C23.6092 17.4015 23.6646 17.254 23.6608 17.1019V17.1002C23.6608 16.9097 23.7365 16.727 23.8711 16.5922C24.0057 16.4575 24.1884 16.3818 24.3789 16.3818C24.5693 16.3818 24.7519 16.4575 24.8865 16.5922C25.0211 16.7269 25.0967 16.9095 25.0968 17.0999M23.0852 22.0857C23.0852 22.0859 23.0852 22.0857 23.0852 22.0857ZM23.0852 22.0857L23.1556 22.0854M25.0968 17.0999C25.0968 17.1 25.0968 17.0998 25.0968 17.0999ZM25.0968 17.0999L25.0264 17.1002" stroke="#529B3C" stroke-width="0.158449"/>
<path d="M27.1677 22.0857C27.1678 22.2761 27.2434 22.4587 27.3779 22.5934C27.5126 22.7281 27.6953 22.8038 27.8857 22.8038C28.0762 22.8038 28.2588 22.7281 28.3934 22.5934C28.5281 22.4586 28.6037 22.276 28.6037 22.0854V22.0836C28.5999 21.9313 28.6551 21.7834 28.7578 21.6709L28.7618 21.666C29.0328 21.3084 29.1794 20.872 29.1794 20.4233C29.1794 19.9745 29.0328 19.5382 28.7618 19.1806L28.7589 19.1769C28.6588 19.0617 28.6037 18.9142 28.6037 18.7616C28.6037 18.6089 28.6587 18.4614 28.7587 18.3461L28.7612 18.3431C29.0366 17.9876 29.1839 17.5496 29.1794 17.0999M27.1677 22.0857C27.1631 21.636 27.3104 21.1977 27.5856 20.8421L27.5881 20.8389C27.6882 20.7236 27.7434 20.5761 27.7434 20.4233C27.7434 20.2705 27.6882 20.1229 27.5882 20.0075L27.585 20.0041C27.3142 19.6465 27.1676 19.21 27.1677 18.7614C27.1677 18.3127 27.3144 17.8763 27.5853 17.5189L27.5892 17.5137C27.6917 17.4015 27.7471 17.254 27.7434 17.1019L27.7433 17.1002C27.7433 16.9097 27.819 16.727 27.9536 16.5922C28.0882 16.4575 28.2709 16.3818 28.4613 16.3818C28.6518 16.3818 28.8344 16.4575 28.969 16.5922C29.1036 16.7269 29.1793 16.9095 29.1794 17.0999" fill="#529B3C"/>
<path d="M27.1677 22.0857C27.1678 22.2761 27.2434 22.4587 27.3779 22.5934C27.5126 22.7281 27.6953 22.8038 27.8857 22.8038C28.0762 22.8038 28.2588 22.7281 28.3934 22.5934C28.5281 22.4586 28.6037 22.276 28.6037 22.0854V22.0836C28.5999 21.9313 28.6551 21.7834 28.7578 21.6709L28.7618 21.666C29.0328 21.3084 29.1794 20.872 29.1794 20.4233C29.1794 19.9745 29.0328 19.5382 28.7618 19.1806L28.7589 19.1769C28.6588 19.0617 28.6037 18.9142 28.6037 18.7616C28.6037 18.6089 28.6587 18.4614 28.7587 18.3461L28.7612 18.3431C29.0366 17.9876 29.1839 17.5496 29.1794 17.0999M27.1677 22.0857C27.1631 21.636 27.3104 21.1977 27.5856 20.8421L27.5881 20.8389C27.6882 20.7236 27.7434 20.5761 27.7434 20.4233C27.7434 20.2705 27.6882 20.1229 27.5882 20.0075L27.585 20.0041C27.3142 19.6465 27.1676 19.21 27.1677 18.7614C27.1677 18.3127 27.3144 17.8763 27.5853 17.5189L27.5892 17.5137C27.6917 17.4015 27.7471 17.254 27.7434 17.1019L27.7433 17.1002C27.7433 16.9097 27.819 16.727 27.9536 16.5922C28.0882 16.4575 28.2709 16.3818 28.4613 16.3818C28.6518 16.3818 28.8344 16.4575 28.969 16.5922C29.1036 16.7269 29.1793 16.9095 29.1794 17.0999M27.1677 22.0857C27.1677 22.0859 27.1677 22.0857 27.1677 22.0857ZM27.1677 22.0857L27.2381 22.0854M29.1794 17.0999C29.1794 17.1 29.1794 17.0998 29.1794 17.0999ZM29.1794 17.0999L29.109 17.1002" stroke="#529B3C" stroke-width="0.158449"/>
</g>
<defs>
<clipPath id="clip0_301_3739">
<rect width="44.4444" height="48" fill="white" transform="translate(0.111206)"/>
</clipPath>
</defs>
</svg>
